<svg xmlns="http://www.w3.org/2000/svg" xml:space="preserve" width="100%" height="100%" data-id="lg_AhltQYETqWtMRrmUXA" data-version="1" viewBox="680 0 600 181"><g data-padding="20"><g transform="translate(10 3.226)scale(.96435)"><rect width="382.216" height="184.823" x="570.383" y="-92.85" fill="none" rx="0" ry="0" transform="matrix(.98 0 0 .98 373.45 90.93)"/><path fill="#fafafa" d="M945.564 73.987v-38.78h8.389q6.625 0 11.466 2.118 4.831 2.117 7.507 6.35 2.675 4.244 2.675 10.692 0 6.076-1.519 9.898-1.529 3.822-4.38 5.988t-6.821 2.95q-3.96.784-8.928.784h-2.862Zm38.142-19.532q0-8.653-3.92-14.366-3.91-5.714-11.055-8.615-7.134-2.9-16.807-2.9h-14.003v51.86h14.004q9.673 0 16.807-2.214 7.145-2.205 11.055-7.87 3.92-5.663 3.92-15.895m13.083 25.98h-8.115l17.415-51.861h12.622l17.778 51.86h-8.203l-15.749-48.636Zm28.92-15.474h-26.44l.283-6.086h25.794Zm25.43 15.474h-7.741V28.574h18.15q6.634 0 11.279 1.38 4.655 1.383 7.144 4.647 2.49 3.273 2.49 8.986 0 3.96-1.343 7.095-1.333 3.127-4.008 4.93-2.666 1.793-6.625 1.793 3.038 0 4.743 1.147 1.705 1.156 2.528 3.048.833 1.88 1.108 4.008.274 2.117.411 4.145.138 2.019.598 3.499.46 1.47 1.617 2.028 1.147.55 3.362-.284v4.606q-1.294 1.108-3.313 1.52-2.028.42-4.106-.275-2.068-.686-3.499-2.852t-1.43-6.311q0-3.871-.314-6.45-.323-2.576-1.43-4.007t-3.411-2.117q-2.303-.695-6.213-.735-3.92-.05-9.996.138Zm0-45.511v17.875h10.683q4.694 0 7.742-.598 3.038-.597 4.557-2.49t1.519-5.575q0-4.322-1.843-6.262-1.842-1.93-5.34-2.44-3.5-.51-8.664-.51Zm56.938 43.855h-7.556v-48.55h7.556Zm6.997 1.656h-21.648V73.8h21.648Zm0-45.227h-21.648v-6.634h21.648Zm19.247 45.227h-7.83V28.574h13.26l14.562 48.45h.176l14.279-48.45h13.27v51.86h-7.831l.46-48.274h-.186l-14.553 48.275h-11.328l-14.465-48.275h-.186Zm62.916 0h-8.105l17.405-51.861h12.623l17.777 51.86h-8.193l-15.758-48.636Zm28.93-15.474h-26.44l.274-6.086h25.793Zm25.42 15.474h-7.741V28.574h18.15q6.634 0 11.289 1.38 4.645 1.383 7.134 4.647 2.49 3.273 2.49 8.986 0 3.96-1.333 7.095-1.343 3.127-4.008 4.93-2.676 1.793-6.635 1.793 3.038 0 4.743 1.147 1.705 1.156 2.538 3.048.824 1.88 1.098 4.008.284 2.117.421 4.145.138 2.019.598 3.499.46 1.47 1.607 2.028 1.157.55 3.362-.284v4.606q-1.284 1.108-3.313 1.52-2.028.42-4.096-.275-2.078-.686-3.499-2.852-1.43-2.166-1.43-6.311 0-3.871-.324-6.45t-1.43-4.007q-1.108-1.43-3.411-2.117-2.303-.695-6.213-.735-3.92-.05-9.996.138Zm0-45.511v17.875h10.683q4.704 0 7.742-.598 3.038-.597 4.557-2.49t1.519-5.575q0-4.322-1.843-6.262-1.842-1.93-5.34-2.44-3.5-.51-8.654-.51ZM957.079 158.56q-4.233 0-8.193-1.01-3.969-1.018-7.193-3.135t-5.155-5.478-2.028-8.065h7.742q0 .274.186 1.48.176 1.195.96 2.763.784 1.558 2.401 3.038 1.608 1.47 4.508 2.44t7.33.97q3.401 0 5.704-.744 2.303-.735 3.685-1.931t1.99-2.49q.597-1.283.597-2.302 0-2.852-1.803-4.606-1.793-1.745-4.831-2.813-3.038-1.058-6.684-1.93-3.636-.873-7.232-1.931-3.587-1.058-6.586-2.813-2.989-1.754-4.645-4.557-1.666-2.812-1.48-7.232.275-4.243 2.95-7.281t7.32-4.655q4.656-1.608 10.643-1.608 5.44 0 9.996 1.93 4.557 1.94 7.37 5.763t2.715 9.722h-7.458q.088-3.224-1.294-5.214-1.382-1.98-3.547-3.077-2.166-1.107-4.47-1.53-2.302-.41-4.145-.41-5.154 0-8.516 1.89t-3.46 5.293q-.087 2.95 1.755 4.704 1.842 1.745 4.88 2.764 3.038 1.01 6.723 1.842 3.685.823 7.282 1.843 3.596 1.009 6.585 2.714 2.999 1.705 4.704 4.557 1.696 2.862 1.52 7.37-.187 4.33-2.95 7.37-2.764 3.047-7.37 4.703t-10.506 1.657m48.187-19.61h-7.37l-17.777-33.35h8.565l13.083 26.343 12.995-26.342h8.565Zm.186 18.512h-7.644v-19.708h7.644Zm41.817 1.097q-4.244 0-8.203-1.01-3.96-1.018-7.183-3.135t-5.155-5.478q-1.94-3.361-2.029-8.065h7.732q0 .274.187 1.48.186 1.195.97 2.763.784 1.558 2.391 3.038 1.617 1.47 4.518 2.44t7.32.97q3.41 0 5.714-.744 2.303-.735 3.685-1.931 1.381-1.196 1.98-2.49.597-1.283.597-2.302 0-2.852-1.793-4.606-1.794-1.745-4.842-2.813-3.038-1.058-6.673-1.93-3.636-.873-7.233-1.931t-6.585-2.813q-3-1.754-4.655-4.557-1.657-2.812-1.47-7.232.274-4.243 2.95-7.281 2.665-3.038 7.32-4.655 4.655-1.608 10.643-1.608 5.429 0 9.996 1.93 4.557 1.94 7.37 5.763 2.802 3.822 2.714 9.722h-7.468q.098-3.224-1.283-5.214-1.382-1.98-3.548-3.077-2.166-1.107-4.469-1.53-2.303-.41-4.145-.41-5.155 0-8.516 1.89-3.372 1.893-3.46 5.293-.088 2.95 1.754 4.704 1.843 1.745 4.88 2.764 3.039 1.01 6.724 1.842 3.684.823 7.281 1.843 3.587 1.009 6.586 2.714 2.989 1.705 4.694 4.557 1.705 2.862 1.519 7.37-.186 4.33-2.95 7.37-2.764 3.047-7.37 4.703t-10.495 1.657m41.542-51.303h7.644v50.205h-7.644Zm23.588 4.978h-39.611v-6.634h39.611Zm44.394 45.227h-36.848v-51.861h35.927v6.634h-28.37v15.749h22.108v6.36h-22.109V151.2h29.292Zm16.406 0h-7.83v-51.861h13.259l14.553 48.45h.186l14.279-48.45h13.269v51.86h-7.83l.46-48.264h-.186l-14.553 48.265h-11.329l-14.465-48.265h-.186ZM822.971 20.003c-42.379.053-76.719 34.393-76.77 76.772.051 42.379 34.391 76.719 76.77 76.77a76.46 76.46 0 0 0 47.436-16.448 76.7 76.7 0 0 0 29.311-60.322c-.052-42.37-34.378-76.705-76.747-76.77m0 5.002c16.544 0 31.79 5.664 43.943 15.104-5.546-.165-11.564-.094-16.756 2.478-6.56 3.304-9.086 2.054-12.555.354a19.35 19.35 0 0 0-13.122-2.29 49.6 49.6 0 0 0-12.909 4.344c-6.254 2.784-11.658 5.192-20.65 2.808-6.372-1.652-13.24-1.322-19.73-.637a71.5 71.5 0 0 1 51.779-22.138m0 143.535a71.4 71.4 0 0 1-22.68-3.705c3.304-8.874 8.921-8.095 19.258-5.806 3.398.756 6.891 1.51 10.408 1.723 6.773.378 12.154-1.416 16.874-3.02 5.428-1.841 10.242-3.446 16.52-1.676a70.8 70.8 0 0 1-40.38 12.437m69.526-89.586q-.449.142-.803.472c-.118.095-12.036 10.384-47.105 14.868-17.606 2.242-22.94 9.157-24.544 13.098-1.652 4.06-.944 8.496 2.006 12.202 3.8 4.814 10.43 7.504 18.03 7.504q2.572 0 5.192-.424c13.027-2.03 16.213-8.662 16.992-11.423 1.086-4.012-.236-8.19-3.493-10.88-4.035-3.35-9.912-3.681-15.741-.85-2.03.969-8.614 4.509-8.732 9.087-.047 1.463.52 3.54 3.493 5.192q4.767 2.667 8.567 1.416a7.55 7.55 0 0 0 4.366-3.73c.566-1.25.023-2.666-1.18-3.28a2.596 2.596 0 0 0-3.352 1.11c0 .047-.472.85-1.44 1.156q-1.722.496-4.53-1.062c-.708-.377-.897-.66-.92-.66.07-.874 2.713-3.163 5.9-4.72 4.011-1.936 7.882-1.865 10.36.188 1.722 1.416 2.407 3.61 1.84 5.712-1.038 3.776-5.852 6.702-12.885 7.788-9.44 1.486-15.883-1.888-18.55-5.24-1.793-2.265-2.242-4.814-1.274-7.198.967-2.383 4.885-8.024 20.532-10.006 30.444-3.894 44.203-12.012 48.38-15.01q1.109 6.136 1.133 12.508c0 22.444-10.384 42.504-26.55 55.696-9.511-4.012-16.355-1.746-22.963.496-4.484 1.534-9.157 3.115-14.986 2.785a61.4 61.4 0 0 1-9.605-1.63c-9.417-2.075-20.06-4.412-25.04 8.969a72.22 72.22 0 0 1-40.12-41.842c16.662 6.018 24.827 5.026 32.096 4.153 6.608-.826 12.366-1.534 24.237 3.446a63.72 63.72 0 0 0 42.032 2.808 2.523 2.523 0 1 0-1.345-4.861 59 59 0 0 1-38.752-2.596c-13.098-5.476-19.753-4.65-26.81-3.776-7.41.896-15.103 1.84-32.59-4.956q-.355-.095-.709-.118a71.74 71.74 0 0 1-.684-34.338c4.956-2.502 9.723-1.298 15.269.094 3.351.826 6.962 1.723 10.785 1.723a21.2 21.2 0 0 0 6.986-1.157c11.422-3.964 19.54-3.445 30.774-2.714l5.947.354c8.732.472 13.5-2.902 18.149-6.183 3.162-2.242 6.136-4.342 10.502-5.404 3.54-.85 7.221-1.04 10.809-1.227 7.575-.425 15.387-.85 21.877-7.27a70.8 70.8 0 0 1 8.425 19.754m-30.562-17.51c-3.8.212-7.74.425-11.73 1.369-5.286 1.274-8.967 3.894-12.224 6.183-4.295 3.044-8.024 5.664-14.986 5.286l-5.9-.354c-11.352-.755-20.343-1.345-32.733 2.997-5.027 1.747-9.818.543-14.868-.708-4.815-1.227-9.747-2.407-14.939-1.11a70.8 70.8 0 0 1 11.847-22.42l.33.025.355-.024c7.316-.873 15.576-1.864 22.561-.023q4.508 1.132 8.213 1.109c6.278 0 11.092-2.124 15.741-4.201 3.54-1.581 7.245-3.21 11.706-3.965 4.743-.78 7.316.472 10.077 1.84 3.87 1.889 8.26 4.037 17.04-.377 4.554-2.265 10.407-2.1 16.07-1.888l4.343.048q4.626 4.484 8.402 9.723c-5.287 5.735-11.8 6.089-19.305 6.49"/><path fill="#fafafa" d="M865.333 137.626q.472 0 .92-.047l.095-.024q7.481-.802 14.726-3.776c3.682-1.581 4.956-4.72 4.295-6.985a4.083 4.083 0 0 0-5.239-2.62c-1.369-4.083-5.9-6.537-10.714-5.475a8.5 8.5 0 0 0-6.042 4.932 5.9 5.9 0 0 0-4.46 2.43c-1.062 1.51-1.416 3.447-.897 5.453.873 3.492 4.012 6.136 7.316 6.136m-2.336-8.638c.165-.236.424-.33.99-.378q.308 0 .638.095c.708.189 1.463.047 2.077-.378s1.015-1.085 1.085-1.817c.118-1.463 1.18-2.572 2.738-2.926q.566-.118 1.133-.118c1.416 0 3.257.637 3.776 2.454q.165.708.07 1.534a2.6 2.6 0 0 0 1.299 2.596 47.2 47.2 0 0 1-11.305 2.549h-.047c-1.086.07-2.218-1.015-2.549-2.29q-.189-.85.118-1.321m-48.097-34.125q-1.935.472-3.917.779a7.79 7.79 0 0 0-8.496-6.065q-2.266.188-4.154 1.416a15.8 15.8 0 0 0-9.959-4.532c-6.49-.495-11.8 2.927-13.594 8.308h-.094c-2.761 0-6.254 2.69-6.254 5.734 0 2.832 1.723 5.31 4.154 6.042 1.298.614 2.737.637 3.776.33a15.1 15.1 0 0 0 12.65 7.718c4.72 0 9.038-2.644 11.445-6.844l.59-.048a5.9 5.9 0 0 0 5.192 2.95l.779-.047a7.08 7.08 0 0 0 5.617-4.32l3.351-.683a6.37 6.37 0 0 0 4.838-6.042 4.767 4.767 0 0 0-5.924-4.696m0 5.83q-2.312.518-4.649.92c-1.062.165-1.888 1.038-2.053 2.124a2.36 2.36 0 0 1-1.959 1.888c-.66 0-.967-.496-1.038-.944-.189-1.298-1.416-2.195-2.667-2.124q-1.888.165-3.776.236a2.55 2.55 0 0 0-2.195 1.51 8.26 8.26 0 0 1-8.189 5.24c-3.54-.237-6.938-2.998-8.449-6.798a2.36 2.36 0 0 0-1.864-1.534l-.59-.07c-.897 0-1.581.4-2.1.684-.166.094-.402.236-.685.142l-.637-.236c-.236-.048-.543-.52-.59-1.086.212-.33.897-.826 1.085-.873l1.652.354a2.5 2.5 0 0 0 2.998-2.195c.424-3.965 3.54-6.514 7.976-6.514l.826.024c3.304.26 6.254 1.935 7.93 4.484a2.502 2.502 0 0 0 4.06.189 4.2 4.2 0 0 1 2.878-1.534c1.936-.142 3.28 1.015 3.28 2.785q0 .377-.07.708a2.502 2.502 0 0 0 2.832 2.997 104 104 0 0 0 6.844-1.251c-.142.4-.52.802-.85.873M891.011 7.33a15.116 15.116 0 0 0 .047 30.232 15.104 15.104 0 1 0-.047-30.208m0 25.18a10.1 10.1 0 1 1 .023-20.177 10.1 10.1 0 0 1 0 20.178"/></g><path fill="transparent" stroke="transparent" d="M719.5 0h561v181h-561z"/></g></svg>